# xmcd
#
# Track frame offsets: 
#        150
#        15838
#        40881
#        63980
#        87873
#        115416
#        132957
#        152553
#        174837
#        196606
#        213207
#        239135
#
# Disc length: 3407 seconds
#
# Revision: 0
# Processed by: cddbd v1.5.2PL0 Copyright (c) Steve Scherf et al.
# Submitted via: ExactAudioCopy v1.0b4
#
DISCID=910d4d0c
DTITLE=Shipp - Crow Loudly
DYEAR=2013
DGENRE=Blues Rock
TTITLE0=Something Bout You Baby
TTITLE1=Meet Me In Austin
TTITLE2=Voodoo In Tallulah
TTITLE3=Kinky
TTITLE4=Sure Got Cold After The Rain Fell
TTITLE5=Razorback Boogie
TTITLE6=Bring It On
TTITLE7=Its Not My Cross To Bear
TTITLE8=First Thing I See
TTITLE9=Crazy Mama
TTITLE10=Positively 4Th Street
TTITLE11=You That Makes Me Crazy
EXTD=
EXTT0=
EXTT1=
EXTT2=
EXTT3=
EXTT4=
EXTT5=
EXTT6=
EXTT7=
EXTT8=
EXTT9=
EXTT10=
EXTT11=
PLAYORDER=
